<?xml version="1.0" encoding="UTF-8" standalone="no"?>
<svg
   xmlns:dc="http://purl.org/dc/elements/1.1/"
   xmlns:cc="http://creativecommons.org/ns#"
   xmlns:rdf="http://www.w3.org/1999/02/22-rdf-syntax-ns#"
   xmlns:svg="http://www.w3.org/2000/svg"
   xmlns="http://www.w3.org/2000/svg"
   viewBox="0 0 880.62665 131.37334"
   height="131.37334"
   width="880.62665"
   xml:space="preserve"
   id="svg2"
   version="1.1"><metadata
     id="metadata8"><rdf:RDF><cc:Work
         rdf:about=""><dc:format>image/svg+xml</dc:format><dc:type
           rdf:resource="http://purl.org/dc/dcmitype/StillImage" /></cc:Work></rdf:RDF></metadata><defs
     id="defs6"><clipPath
       id="clipPath20"
       clipPathUnits="userSpaceOnUse"><path
         id="path18"
         d="M 0,0 H 6604.71 V 985 H 0 Z" /></clipPath></defs><g
     transform="matrix(1.3333333,0,0,-1.3333333,0,131.37333)"
     id="g10"><g
       transform="scale(0.1)"
       id="g12"><g
         id="g14"><g
           clip-path="url(#clipPath20)"
           id="g16"><path
             id="path22"
             style="fill:#0d0d0d;fill-opacity:1;fill-rule:nonzero;stroke:none"
             d="m 662.598,852.125 -0.121,0.082 C 593.695,900.328 506.715,924.73 403.906,924.73 173.633,924.73 0,725.66 0,461.68 0,194.16 163.344,0 388.398,0 c 95.969,0 176.04,20.5469 259.786,66.75 6.765,4.0586 13.16,7.9063 13.16,16.0313 0,8.1093 -6.223,12.3476 -12.379,12.3476 -5.324,0 -8.121,-1.4297 -12.75,-3.8008 l -1.813,-0.9179 C 554.754,46.3398 481.195,27.5195 388.398,27.5195 179.281,27.5195 27.5,210.117 27.5,461.68 c 0,248.293 161.816,435.523 376.406,435.523 124.418,0 199.93,-36.348 241.328,-66.832 5.801,-4.348 9.512,-6.418 15.004,-6.418 7.051,0 12.36,5.317 12.36,12.36 0,7.265 -4.817,11.894 -10,15.812" /><path
             id="path24"
             style="fill:#0d0d0d;fill-opacity:1;fill-rule:nonzero;stroke:none"
             d="m 1211.5,637.066 c -15.52,7.039 -42.67,11.602 -69.18,11.602 -103.13,0 -183.843,-62.059 -220.054,-167.48 v 144.57 c 0,9.051 -5.137,14.457 -13.766,14.457 -8.629,0 -13.766,-5.406 -13.766,-14.457 V 22.9219 c 0,-9.0547 5.137,-14.46487 13.766,-14.46487 8.629,0 13.766,5.41017 13.766,14.46487 V 298.293 c 0,291.379 153.884,322.836 220.054,322.836 19.36,0 34.43,-2.324 54.13,-8.399 4.49,-1.476 8.73,-2.867 12.05,-2.867 8.11,0 13.77,5.664 13.77,13.774 0,5.527 -4.02,10.543 -10.77,13.429" /><path
             id="path26"
             style="fill:#0d0d0d;fill-opacity:1;fill-rule:nonzero;stroke:none"
             d="m 1757.07,479.977 c 0,-111.317 -119.4,-153.512 -440.12,-155.219 1.31,185.676 94.94,296.371 251.04,296.371 128.98,0 189.08,-84.227 189.08,-141.152 z m 20.8,-397.5161 c -4.56,0 -8.61,-2.1015 -16.66,-6.3281 -2.85,-1.4765 -6.27,-3.25 -10.4,-5.3242 -25.36,-12.0313 -109.17,-43.2891 -191.27,-43.2891 -118.98,0 -239.42,92.6255 -241.15,269.6875 287.9,1.68 466.16,33.145 466.16,182.77 0,39.902 -20.88,82.25 -55.87,113.304 -28.47,25.266 -79.46,55.387 -160.69,55.387 -171.81,0 -278.55,-125.09 -278.55,-326.441 C 1289.44,129.492 1397.97,0 1559.54,0 c 100.03,0 202.94,43.2539 223.01,55.4219 7.53,4.1679 9.07,8.3164 9.07,13.2695 0,7.8516 -5.9,13.7695 -13.75,13.7695" /><path
             id="path28"
             style="fill:#0d0d0d;fill-opacity:1;fill-rule:nonzero;stroke:none"
             d="M 2368.66,330.996 V 108.125 c -43.64,-53.4844 -111.51,-80.6055 -201.75,-80.6055 -91.29,0 -183.43,46.6993 -183.43,151.0355 0,102.558 74.75,152.441 228.51,152.441 z m 72.91,-295.0194 c -13.65,0 -45.38,6.8945 -45.38,70.7614 v 345.059 c 0,90.82 -53.41,196.871 -203.92,196.871 -101.17,0 -171.48,-34.32 -190.75,-44.918 -7.27,-4.363 -11.74,-7.441 -11.74,-15.332 0,-7.461 5.65,-13.762 12.33,-13.762 4.32,0 8.16,2.02 12.58,4.364 l 3.36,1.734 c 22.94,12.137 85.86,40.375 174.22,40.375 130.18,0 176.39,-91.219 176.39,-169.332 v -93.274 h -156.67 c -169.89,0 -256.01,-60.535 -256.01,-179.968 C 1955.98,55.1953 2061.92,0 2166.91,0 c 85.28,0 153.95,24.5781 204.29,73.1055 11.3,-63.88675 67,-64.64847 67.57,-64.64847 14.41,0 16.57,8.63277 16.57,13.76957 0,8.4765 -5.28,13.75 -13.77,13.75" /><path
             id="path30"
             style="fill:#0d0d0d;fill-opacity:1;fill-rule:nonzero;stroke:none"
             d="m 2960.93,50.0586 c -3.67,0 -6.38,-1.1641 -10.51,-2.957 -1.89,-0.8243 -4.16,-1.7969 -7.09,-2.9414 -13.09,-4.9805 -43.72,-16.6407 -82.43,-16.6407 -90.49,0 -174.26,24.9532 -174.26,205.9575 v 379.199 h 215.12 c 9.05,0 14.45,5.156 14.45,13.785 0,8.613 -5.4,13.754 -14.45,13.754 h -215.12 v 194.004 c 0,9.047 -5.13,14.453 -13.75,14.453 -8.62,0 -13.78,-5.406 -13.78,-14.453 V 640.215 h -95.4 c -9.05,0 -14.45,-5.141 -14.45,-13.754 0,-8.629 5.4,-13.785 14.45,-13.785 h 95.4 V 233.477 C 2659.11,26.5313 2766.95,0 2860.9,0 c 42.4,0 82.68,14.3086 103.17,22.9375 2.45,1.2227 9.89,4.9531 9.89,13.3398 0,7.6172 -5.85,13.7813 -13.03,13.7813" /><path
             id="path32"
             style="fill:#0d0d0d;fill-opacity:1;fill-rule:nonzero;stroke:none"
             d="m 3565.08,479.977 c 0,-111.317 -119.38,-153.512 -440.06,-155.219 1.3,185.676 94.92,296.371 251.02,296.371 128.96,0 189.04,-84.227 189.04,-141.152 z m 20.8,-397.5161 c -4.56,0 -8.59,-2.1015 -16.66,-6.3281 -2.83,-1.4844 -6.24,-3.2734 -10.34,-5.3242 -23.65,-11.2188 -109.55,-43.2891 -191.32,-43.2891 -118.97,0 -239.41,92.6255 -241.14,269.6875 287.94,1.68 466.21,33.145 466.21,182.77 0,39.89 -20.88,82.25 -55.89,113.304 -28.48,25.266 -79.49,55.387 -160.7,55.387 -171.84,0 -278.59,-125.09 -278.59,-326.441 C 3097.45,129.492 3206,0 3367.56,0 c 99.92,0 202.95,43.2539 223.08,55.4219 7.51,4.1875 9.03,8.3164 9.03,13.2695 0,7.8516 -5.92,13.7695 -13.79,13.7695" /><path
             id="path34"
             style="fill:#0d0d0d;fill-opacity:1;fill-rule:nonzero;stroke:none"
             d="m 4558.45,916.277 h -392.27 c -13.41,0 -20.8,-7.386 -20.8,-20.804 V 22.9219 c 0,-9.0547 5.13,-14.46487 13.75,-14.46487 8.64,0 13.77,5.41017 13.77,14.46487 V 473.242 h 358.78 c 9.06,0 14.47,5.149 14.47,13.762 0,8.633 -5.41,13.781 -14.47,13.781 H 4172.9 V 888.75 h 385.55 c 9.07,0 14.48,5.152 14.48,13.773 0,8.614 -5.41,13.754 -14.48,13.754" /><path
             id="path36"
             style="fill:#0d0d0d;fill-opacity:1;fill-rule:nonzero;stroke:none"
             d="m 4906.2,35.9766 c -30.71,0 -52.2,4.5117 -67.66,14.1914 -41.2,25.8945 -46.76,105.777 -46.76,180.516 v 740.144 c 0,9.059 -5.14,14.481 -13.77,14.481 -8.63,0 -13.77,-5.422 -13.77,-14.481 V 230.684 c 0,-170.3129 33.17,-222.22697 141.96,-222.22697 8.47,0 13.73,5.27347 13.73,13.76957 0,8.4765 -5.26,13.75 -13.73,13.75" /><path
             id="path38"
             style="fill:#0d0d0d;fill-opacity:1;fill-rule:nonzero;stroke:none"
             d="m 5338.13,411.816 c 27.95,25.813 50.38,56.692 72.08,86.547 18.26,25.121 37.11,51.078 59.06,73.68 62.24,-50.98 96.49,-139.516 96.49,-249.816 0,-184.532 -90.71,-294.7075 -242.6,-294.7075 -147.38,0 -242.6,115.6835 -242.6,294.7075 0,50.39 7.37,96.375 21.91,136.933 14.33,-41.355 46.05,-71.726 88.52,-84.211 50.86,-14.949 105.92,-1.172 147.14,36.867 z m 44.02,93.094 c -4.72,-6.437 -9.49,-12.898 -14.29,-19.34 -33.5,-44.933 -74.04,-93.058 -131.2,-95.218 -58.01,-1.844 -111.23,47.597 -116.48,108.91 42.13,78.597 114.16,121.867 202.98,121.867 47.24,0 89.3,-11.426 125.1,-33.977 -24.28,-25.394 -45.52,-54.269 -66.11,-82.242 z m 1209.48,135.305 c -5.07,0 -11.7,-2.215 -14.37,-12.82 -1.22,-4.977 -138.32,-525.657 -172.94,-587.9419 -0.64,-1.289 -3.59,-3.4765 -10.58,-3.4765 -6.95,0 -8.66,2.0312 -10.64,4.9609 -29.79,56.7656 -164.94,506.6055 -181.37,569.5705 -3.18,12.754 -9.68,29.707 -29.11,29.707 -19.46,0 -25.97,-16.953 -29.16,-29.672 -16.43,-63 -151.57,-512.8399 -181.15,-569.2422 -2.19,-3.293 -3.91,-5.3242 -10.85,-5.3242 -6.99,0 -9.92,2.1679 -10.66,3.625 -23.49,42.332 -94,288.1254 -147.31,486.0114 l 0.01,0.231 -0.15,0.636 c -1.32,5.723 -2.88,11.219 -4.56,16.622 l -3.73,-1.153 v 0 l 3.35,2.586 -0.77,2.899 h -0.24 c -18.21,54.671 -55.43,94.722 -105.06,112.964 -54.46,20.024 -118.33,11.165 -175.23,-24.335 -13.54,-8.43 -26.35,-18.125 -39.13,-29.547 -41.46,27.972 -90.16,42.152 -144.82,42.152 -164.09,0 -270.1,-128.141 -270.1,-326.441 C 5053.06,129.492 5161.6,0 5323.16,0 c 166.59,0 270.1,123.469 270.1,322.227 0,116.211 -37,211.281 -104.32,268.371 4,3.429 7.6,6.367 11.14,9.05 52.5,39.954 115.06,54.27 167.24,38.227 44.89,-13.773 78.82,-48.602 95.41,-97.859 81.07,-299.789 134.44,-477.5433 154.34,-514.059 6.45,-11.6093 18.01,-17.49997 34.39,-17.49997 19.31,0 28.57,8.68357 33.02,16.07427 35.6,64.121 172.19,528.2417 186.31,579.8557 0.46,1.883 1.14,4.593 1.82,6.511 0.67,-1.89 1.36,-4.57 1.88,-6.605 12.39,-45.492 150.56,-515.4922 186.33,-579.8594 4.32,-7.293 13.55,-15.97657 32.92,-15.97657 16.38,0 27.94,5.89067 34.4,17.52737 31.37,57.4922 133.44,436.3986 166.99,560.9066 l 6.59,24.457 c 2.12,7.761 2.99,11.679 2.99,15.804 0,7.821 -5.25,13.063 -13.08,13.063" /></g></g></g></g></svg>