<svg xmlns="http://www.w3.org/2000/svg" id="SvgjsSvg51174" width="4096" height="1664.7986977933965" version="1.1" xmlns:xlink="http://www.w3.org/1999/xlink" xmlns:svgjs="http://svgjs.com/svgjs"><defs id="SvgjsDefs51175"></defs><g id="SvgjsG51176" transform="translate(328, 328) scale(34.4)" opacity="1"><defs id="SvgjsDefs14988"><linearGradient id="SvgjsLinearGradientwGr2ifvH9" gradientUnits="userSpaceOnUse" x1="7.125000000000005" y1="82.02500000000002" x2="84.37500000000001" y2="4.775000000000008"><stop id="SvgjsStop14991" stop-color="#27e87e" offset="0.05"></stop><stop id="SvgjsStop14992" stop-color="#0e8142" offset="0.95"></stop></linearGradient></defs><g id="SvgjsG14989" transform="scale(0.21645021645021645)" opacity="1"><g id="SvgjsG14993" class="V0RHilfYO" transform="translate(-9.279726791584682, -12.806022972386872) scale(1.8559453583169365)" light-content="false" non-strokable="false" fill="url(#SvgjsLinearGradientwGr2ifvH9)"><path d="M38.6 56.8h15.6V41.2H38.6v15.6zm3.1-12.5h9.4v9.4h-9.4v-9.4zm40.4.3c-2.4 0-4.4 2-4.4 4.4s2 4.4 4.4 4.4 4.4-2 4.4-4.4-2-4.4-4.4-4.4zm0 5.7c-.7 0-1.3-.6-1.3-1.3s.6-1.3 1.3-1.3c.7 0 1.3.6 1.3 1.3s-.6 1.3-1.3 1.3z"></path><path d="M62.1 23.7h6.8c.6 1.7 2.2 2.8 4.1 2.8 2.4 0 4.4-2 4.4-4.4s-2-4.4-4.4-4.4c-1.9 0-3.5 1.2-4.1 2.8h-6.8c-.5-.7-1.3-1.2-2.3-1.2-1.5 0-2.8 1.2-2.8 2.8 0 1 .5 1.8 1.2 2.3v4.9h-9.8v-4.9c.7-.5 1.2-1.3 1.2-2.3 0-1.5-1.2-2.8-2.8-2.8S44 20.6 44 22.1c0 1 .5 1.8 1.2 2.3v4.9h-9.8v-4.9c.7-.5 1.2-1.3 1.2-2.3 0-1-.5-1.8-1.2-2.3v-4.4c1.7-.6 2.8-2.2 2.8-4.1 0-2.4-2-4.4-4.4-4.4s-4.4 2-4.4 4.4c0 1.9 1.2 3.5 2.8 4.1v4.4c-.7.5-1.2 1.3-1.2 2.3 0 1 .5 1.8 1.2 2.3v4.9h-5.7v5.2H22c-.5-.7-1.3-1.2-2.3-1.2-1 0-1.8.5-2.3 1.2H7.9v5.4C6.2 40.5 5 42.1 5 44c0 2.4 2 4.4 4.4 4.4s4.4-2 4.4-4.4c0-1.9-1.2-3.5-2.8-4.1v-2.2h6.5c.5.7 1.3 1.2 2.3 1.2 1 0 1.8-.5 2.3-1.2h4.5v9.8h-4.5c-.5-.7-1.3-1.2-2.3-1.2-1.5 0-2.8 1.2-2.8 2.8s1.2 2.8 2.8 2.8c1 0 1.8-.5 2.3-1.2h4.5v9.8h-4.5c-.5-.7-1.3-1.2-2.3-1.2-1 0-1.8.5-2.3 1.2h-4c-.6-1.7-2.2-2.8-4.1-2.8C7 57.6 5 59.5 5 62s2 4.4 4.4 4.4c1.9 0 3.5-1.2 4.1-2.8h4c.5.7 1.3 1.2 2.3 1.2 1 0 1.8-.5 2.3-1.2h4.5v5h5.7v4.9c-.2.1-.3.2-.4.4h-8c-.6-1.7-2.2-2.8-4.1-2.8-2.4 0-4.4 2-4.4 4.4s2 4.4 4.4 4.4c1.9 0 3.5-1.2 4.1-2.8h7.5c.4.9 1.4 1.6 2.5 1.6 1.5 0 2.8-1.2 2.8-2.8 0-1-.5-1.8-1.2-2.3v-4.9h9.8v4.9c-.7.5-1.2 1.3-1.2 2.3 0 1.5 1.2 2.8 2.8 2.8s2.8-1.2 2.8-2.8c0-1-.5-1.8-1.2-2.3v-4.9h9.8v4.9c-.7.5-1.2 1.3-1.2 2.3 0 1.5 1.2 2.8 2.8 2.8s2.8-1.2 2.8-2.8c0-1-.5-1.8-1.2-2.3v-4.9c2.7 0 4.8-2.2 4.8-4.9v-.1h4.5c.2.3.4.5.7.7v7c-1.7.6-2.8 2.2-2.8 4.1 0 2.4 2 4.4 4.4 4.4s4.4-2 4.4-4.4c0-1.9-1.2-3.5-2.8-4.1v-7c.7-.5 1.2-1.3 1.2-2.3 0-1.5-1.2-2.8-2.8-2.8-1 0-1.8.5-2.3 1.2h-4.5v-9.8h4.5c.5.7 1.3 1.2 2.3 1.2 1.5 0 2.8-1.2 2.8-2.8s-1.2-2.8-2.8-2.8c-1 0-1.8.5-2.3 1.2h-4.5v-9.8h4.5c.5.7 1.3 1.2 2.3 1.2 1.5 0 2.8-1.2 2.8-2.8s-1.2-2.8-2.8-2.8c-1 0-1.8.5-2.3 1.2h-4.5v-5.2h-4.8v-4.9c.1-.2.4-.4.6-.7zM33.9 10.1c.7 0 1.3.6 1.3 1.3 0 .4-.2.8-.5 1-.2-.1-.5-.2-.7-.2-.3 0-.5.1-.7.2-.3-.2-.5-.6-.5-1-.2-.7.4-1.3 1.1-1.3zM9.4 45.2c-.7 0-1.3-.6-1.3-1.3 0-.7.6-1.3 1.3-1.3.7 0 1.3.6 1.3 1.3 0 .8-.6 1.3-1.3 1.3zm0 18c-.7 0-1.3-.6-1.3-1.3s.6-1.3 1.3-1.3c.7 0 1.3.6 1.3 1.3s-.6 1.3-1.3 1.3zm10.4 13.4c-.7 0-1.3-.6-1.3-1.3 0-.7.6-1.3 1.3-1.3.7 0 1.3.6 1.3 1.3 0 .8-.6 1.3-1.3 1.3zm53.2 0c-.7 0-1.3-.6-1.3-1.3 0-.7.6-1.3 1.3-1.3.7 0 1.3.6 1.3 1.3-.1.8-.6 1.3-1.3 1.3zm-10-13c0 1-.8 1.8-1.8 1.8H29.8v-33H63v31.2zm10-42.8c.7 0 1.3.6 1.3 1.3s-.6 1.3-1.3 1.3c-.7 0-1.3-.6-1.3-1.3s.5-1.3 1.3-1.3z"></path></g><g id="SvgjsG14994" class="text" transform="translate(310.1409065943393, 66.4321720863302) scale(1)" light-content="false" fill="#171717"><path d="M-126.48 1.12C-122.58 1.12 -119.12 0.62 -116.12 -0.37C-113.11 -1.36 -110.57 -2.77 -108.49 -4.6C-106.42 -6.43 -104.84 -8.6 -103.75 -11.11C-102.67 -13.62 -102.13 -16.42 -102.13 -19.52C-102.13 -24.92 -103.69 -29.11 -106.82 -32.12C-109.95 -35.13 -114.8 -37.22 -121.37 -38.4L-127.41 -39.51C-130.57 -40.07 -132.87 -40.94 -134.29 -42.11C-135.72 -43.29 -136.43 -45.12 -136.43 -47.6C-136.43 -50.02 -135.55 -51.89 -133.78 -53.22C-132.02 -54.56 -129.37 -55.22 -125.83 -55.22C-122.36 -55.22 -119.48 -54.6 -117.19 -53.36C-114.89 -52.12 -112.94 -50.51 -111.33 -48.53L-102.96 -56.43C-105.57 -59.59 -108.7 -61.98 -112.35 -63.59C-116.01 -65.2 -120.29 -66.01 -125.18 -66.01C-128.84 -66.01 -132.11 -65.56 -134.99 -64.66C-137.87 -63.76 -140.34 -62.47 -142.38 -60.8C-144.43 -59.13 -145.99 -57.11 -147.08 -54.76C-148.16 -52.4 -148.7 -49.77 -148.7 -46.86C-148.7 -36.32 -142.23 -30.03 -129.27 -27.98L-123.14 -27.05C-119.73 -26.43 -117.4 -25.44 -116.16 -24.08C-114.92 -22.72 -114.3 -20.95 -114.3 -18.78C-114.3 -15.99 -115.27 -13.77 -117.19 -12.13C-119.11 -10.49 -121.96 -9.67 -125.74 -9.67C-129.09 -9.67 -132.14 -10.35 -134.9 -11.71C-137.66 -13.08 -140.15 -15.06 -142.38 -17.66L-150.66 -9.67C-147.87 -6.45 -144.53 -3.84 -140.66 -1.86C-136.79 0.12 -132.06 1.12 -126.48 1.12Z M-40.86 -46.58L-40.86 0L-29.24 0L-29.24 -64.89L-42.53 -64.89L-58.99 -33.19L-59.36 -33.19L-76 -64.89L-89.85 -64.89L-89.85 0L-78.23 0L-78.23 -46.58L-77.86 -46.58L-72.84 -36.26L-59.55 -11.71L-46.25 -36.26L-41.23 -46.58Z M26.17 0L38.91 0L17.34 -64.89L2.09 -64.89L-19.66 0L-7.21 0L-2.09 -16.55L20.96 -16.55ZM9.62 -53.74L17.99 -27.05L0.88 -27.05L9.16 -53.74Z M60.75 0L60.75 -25.01L72.38 -25.01L84.46 0L98.13 0L84.83 -26.4C88.86 -27.77 91.88 -30.06 93.9 -33.28C95.91 -36.51 96.92 -40.35 96.92 -44.81C96.92 -47.85 96.47 -50.61 95.57 -53.08C94.67 -55.56 93.4 -57.69 91.76 -59.45C90.12 -61.22 88.12 -62.57 85.76 -63.5C83.41 -64.43 80.74 -64.89 77.77 -64.89L48.48 -64.89L48.48 0ZM76.56 -35.33L60.75 -35.33L60.75 -54.2L76.56 -54.2C78.91 -54.2 80.77 -53.58 82.14 -52.34C83.5 -51.1 84.18 -49.3 84.18 -46.95L84.18 -42.67C84.18 -40.32 83.5 -38.5 82.14 -37.23C80.77 -35.96 78.91 -35.33 76.56 -35.33Z M133.46 -54.01L151.86 -54.01L151.86 -64.89L102.78 -64.89L102.78 -54.01L121.18 -54.01L121.18 0L133.46 0Z"></path></g><g id="SvgjsG14995" class="text" transform="translate(309.6528159349054, 126.98648642781733) scale(1)" light-content="false" fill="#171717"><path d="M-119.92 0L-111.49 0L-111.49 -18.84L-93.86 -18.84L-93.86 -26.32L-111.49 -26.32L-111.49 -37.11L-91.24 -37.11L-91.24 -44.58L-119.92 -44.58Z M-60.2 0L-51.45 0L-66.27 -44.58L-76.74 -44.58L-91.69 0L-83.13 0L-79.62 -11.37L-63.78 -11.37ZM-71.57 -36.92L-65.82 -18.59L-77.57 -18.59L-71.89 -36.92Z M-36.44 0L-36.44 -17.18L-28.46 -17.18L-20.15 0L-10.76 0L-19.9 -18.14C-17.13 -19.08 -15.05 -20.65 -13.67 -22.87C-12.28 -25.08 -11.59 -27.72 -11.59 -30.79C-11.59 -32.87 -11.9 -34.77 -12.52 -36.47C-13.14 -38.17 -14.01 -39.63 -15.14 -40.85C-16.27 -42.06 -17.64 -42.99 -19.26 -43.63C-20.88 -44.26 -22.71 -44.58 -24.75 -44.58L-44.87 -44.58L-44.87 0ZM-25.58 -24.27L-36.44 -24.27L-36.44 -37.24L-25.58 -37.24C-23.96 -37.24 -22.69 -36.81 -21.75 -35.96C-20.81 -35.11 -20.34 -33.87 -20.34 -32.26L-20.34 -29.32C-20.34 -27.7 -20.81 -26.45 -21.75 -25.58C-22.69 -24.71 -23.96 -24.27 -25.58 -24.27Z M31.2 -32L31.2 0L39.19 0L39.19 -44.58L30.05 -44.58L18.75 -22.8L18.49 -22.8L7.06 -44.58L-2.46 -44.58L-2.46 0L5.53 0L5.53 -32L5.78 -32L9.23 -24.91L18.36 -8.05L27.5 -24.91L30.95 -32Z M49.66 0L79.04 0L79.04 -7.47L58.09 -7.47L58.09 -18.84L76.62 -18.84L76.62 -26.32L58.09 -26.32L58.09 -37.11L79.04 -37.11L79.04 -44.58L49.66 -44.58Z M96.42 0L96.42 -17.18L104.4 -17.18L112.7 0L122.09 0L112.96 -18.14C115.73 -19.08 117.8 -20.65 119.19 -22.87C120.57 -25.08 121.26 -27.72 121.26 -30.79C121.26 -32.87 120.95 -34.77 120.34 -36.47C119.72 -38.17 118.85 -39.63 117.72 -40.85C116.59 -42.06 115.22 -42.99 113.6 -43.63C111.98 -44.26 110.15 -44.58 108.11 -44.58L87.99 -44.58L87.99 0ZM107.27 -24.27L96.42 -24.27L96.42 -37.24L107.27 -37.24C108.89 -37.24 110.17 -36.81 111.11 -35.96C112.04 -35.11 112.51 -33.87 112.51 -32.26L112.51 -29.32C112.51 -27.7 112.04 -26.45 111.11 -25.58C110.17 -24.71 108.89 -24.27 107.27 -24.27Z"></path></g></g></g></svg>